<?xml version="1.0" encoding="UTF-8" standalone="no"?>
<!DOCTYPE svg PUBLIC "-//W3C//DTD SVG 1.1//EN"
 "http://www.w3.org/Graphics/SVG/1.1/DTD/svg11.dtd">
<!-- Generated by graphviz version 12.1.1 (0)
 -->
<!-- Pages: 1 -->
<svg width="2316pt" height="1065pt"
 viewBox="0.00 0.00 2316.00 1064.50" xmlns="http://www.w3.org/2000/svg" xmlns:xlink="http://www.w3.org/1999/xlink">
<g id="graph0" class="graph" transform="scale(1 1) rotate(0) translate(144 920.5)">
<polygon fill="white" stroke="none" points="-144,144 -144,-920.5 2172,-920.5 2172,144 -144,144"/>
<g id="clust1" class="cluster">
<title>cluster_10</title>
<path fill="#e5f5fd" stroke="#aeb6be" d="M20,-30.4C20,-30.4 400,-30.4 400,-30.4 406,-30.4 412,-36.4 412,-42.4 412,-42.4 412,-193.45 412,-193.45 412,-199.45 406,-205.45 400,-205.45 400,-205.45 20,-205.45 20,-205.45 14,-205.45 8,-199.45 8,-193.45 8,-193.45 8,-42.4 8,-42.4 8,-36.4 14,-30.4 20,-30.4"/>
<text text-anchor="middle" x="126.62" y="-190.05" font-family="Sans-Serif" font-size="12.00" fill="#2d3436">VLAN10 (TRUSTED): 192.168.10.0/24</text>
</g>
<g id="clust2" class="cluster">
<title>cluster_42</title>
<path fill="#e5f5fd" stroke="#aeb6be" d="M444,-8C444,-8 1120,-8 1120,-8 1126,-8 1132,-14 1132,-20 1132,-20 1132,-238.1 1132,-238.1 1132,-244.1 1126,-250.1 1120,-250.1 1120,-250.1 444,-250.1 444,-250.1 438,-250.1 432,-244.1 432,-238.1 432,-238.1 432,-20 432,-20 432,-14 438,-8 444,-8"/>
<text text-anchor="middle" x="549.5" y="-234.7" font-family="Sans-Serif" font-size="12.00" fill="#2d3436">VLAN42 (SERVERS): 192.168.42.0/24</text>
</g>
<g id="clust3" class="cluster">
<title>cluster_K8s</title>
<path fill="#ebf3e7" stroke="#aeb6be" d="M452,-16C452,-16 832,-16 832,-16 838,-16 844,-22 844,-28 844,-28 844,-207.85 844,-207.85 844,-213.85 838,-219.85 832,-219.85 832,-219.85 452,-219.85 452,-219.85 446,-219.85 440,-213.85 440,-207.85 440,-207.85 440,-28 440,-28 440,-22 446,-16 452,-16"/>
<text text-anchor="middle" x="458.5" y="-204.45" font-family="Sans-Serif" font-size="12.00" fill="#2d3436">K8s</text>
</g>
<g id="clust4" class="cluster">
<title>cluster_50</title>
<path fill="#e5f5fd" stroke="#aeb6be" d="M1152,-30.4C1152,-30.4 1349,-30.4 1349,-30.4 1355,-30.4 1361,-36.4 1361,-42.4 1361,-42.4 1361,-193.45 1361,-193.45 1361,-199.45 1355,-205.45 1349,-205.45 1349,-205.45 1152,-205.45 1152,-205.45 1146,-205.45 1140,-199.45 1140,-193.45 1140,-193.45 1140,-42.4 1140,-42.4 1140,-36.4 1146,-30.4 1152,-30.4"/>
<text text-anchor="middle" x="1250.75" y="-190.05" font-family="Sans-Serif" font-size="12.00" fill="#2d3436">VLAN50 (GUEST): 192.168.50.0/24</text>
</g>
<g id="clust5" class="cluster">
<title>cluster_70</title>
<path fill="#e5f5fd" stroke="#aeb6be" d="M1381,-30.4C1381,-30.4 1559,-30.4 1559,-30.4 1565,-30.4 1571,-36.4 1571,-42.4 1571,-42.4 1571,-193.45 1571,-193.45 1571,-199.45 1565,-205.45 1559,-205.45 1559,-205.45 1381,-205.45 1381,-205.45 1375,-205.45 1369,-199.45 1369,-193.45 1369,-193.45 1369,-42.4 1369,-42.4 1369,-36.4 1375,-30.4 1381,-30.4"/>
<text text-anchor="middle" x="1470" y="-190.05" font-family="Sans-Serif" font-size="12.00" fill="#2d3436">VLAN70 (IOT): 192.168.70.0/24</text>
</g>
<g id="clust6" class="cluster">
<title>cluster_90</title>
<path fill="#e5f5fd" stroke="#aeb6be" d="M1591,-30.4C1591,-30.4 1780,-30.4 1780,-30.4 1786,-30.4 1792,-36.4 1792,-42.4 1792,-42.4 1792,-193.45 1792,-193.45 1792,-199.45 1786,-205.45 1780,-205.45 1780,-205.45 1591,-205.45 1591,-205.45 1585,-205.45 1579,-199.45 1579,-193.45 1579,-193.45 1579,-42.4 1579,-42.4 1579,-36.4 1585,-30.4 1591,-30.4"/>
<text text-anchor="middle" x="1685.62" y="-190.05" font-family="Sans-Serif" font-size="12.00" fill="#2d3436">VLAN90 (CCTV): 192.168.90.0/24</text>
</g>
<g id="clust7" class="cluster">
<title>cluster_100</title>
<path fill="#e5f5fd" stroke="#aeb6be" d="M1812,-30.4C1812,-30.4 2008,-30.4 2008,-30.4 2014,-30.4 2020,-36.4 2020,-42.4 2020,-42.4 2020,-193.45 2020,-193.45 2020,-199.45 2014,-205.45 2008,-205.45 2008,-205.45 1812,-205.45 1812,-205.45 1806,-205.45 1800,-199.45 1800,-193.45 1800,-193.45 1800,-42.4 1800,-42.4 1800,-36.4 1806,-30.4 1812,-30.4"/>
<text text-anchor="middle" x="1910.38" y="-190.05" font-family="Sans-Serif" font-size="12.00" fill="#2d3436">VLAN100 (VPN): 192.168.100.0/24</text>
</g>
<!-- b19e077e26744ed58ea989f3276382f4 -->
<g id="node1" class="node">
<title>b19e077e26744ed58ea989f3276382f4</title>
<image xlink:href="/home/stasky/.pyenv/versions/3.8.10/envs/diagrams/lib/python3.8/site-packages/resources/generic/network/switch.png" width="100.8px" height="100.8px" preserveAspectRatio="xMinYMin meet" x="1314.6" y="-376.9"/>
<text text-anchor="middle" x="1365" y="-262.25" font-family="Sans-Serif" font-size="13.00" fill="#2d3436">Switch</text>
</g>
<!-- 4da32dbf28d4467f83932f9e87f1fec8 -->
<g id="node3" class="node">
<title>4da32dbf28d4467f83932f9e87f1fec8</title>
<image xlink:href="./resources/macbook.png" width="100.8px" height="100.8px" preserveAspectRatio="xMinYMin meet" x="159.6" y="-157.2"/>
<text text-anchor="middle" x="210" y="-42.55" font-family="Sans-Serif" font-size="13.00" fill="#2d3436">WorkLaptop</text>
</g>
<!-- b19e077e26744ed58ea989f3276382f4&#45;&gt;4da32dbf28d4467f83932f9e87f1fec8 -->
<g id="edge3" class="edge">
<title>b19e077e26744ed58ea989f3276382f4&#45;&gt;4da32dbf28d4467f83932f9e87f1fec8</title>
<path fill="none" stroke="#7b8894" d="M1314.63,-349.3C1092.32,-349.3 210,-349.3 210,-349.3 210,-349.3 210,-263.88 210,-216.79"/>
<polygon fill="#7b8894" stroke="#7b8894" points="213.5,-216.96 210,-206.96 206.5,-216.96 213.5,-216.96"/>
</g>
<!-- 3f52977c4d5745c8a34be081b692c778 -->
<g id="node8" class="node">
<title>3f52977c4d5745c8a34be081b692c778</title>
<image xlink:href="/home/stasky/.pyenv/versions/3.8.10/envs/diagrams/lib/python3.8/site-packages/resources/generic/storage/storage.png" width="100.8px" height="100.8px" preserveAspectRatio="xMinYMin meet" x="879.6" y="-157.2"/>
<text text-anchor="middle" x="930" y="-42.55" font-family="Sans-Serif" font-size="13.00" fill="#2d3436">NAS/DAS</text>
</g>
<!-- b19e077e26744ed58ea989f3276382f4&#45;&gt;3f52977c4d5745c8a34be081b692c778 -->
<g id="edge4" class="edge">
<title>b19e077e26744ed58ea989f3276382f4&#45;&gt;3f52977c4d5745c8a34be081b692c778</title>
<path fill="none" stroke="#7b8894" d="M1314.68,-303.7C1200.17,-303.7 930,-303.7 930,-303.7 930,-303.7 930,-284.45 930,-261.56"/>
<polygon fill="#7b8894" stroke="#7b8894" points="933.5,-261.61 930,-251.61 926.5,-261.61 933.5,-261.61"/>
</g>
<!-- 2c4855028eae4f058942555470c6438c -->
<g id="node10" class="node">
<title>2c4855028eae4f058942555470c6438c</title>
<image xlink:href="./resources/ap_unifi.png" width="100.8px" height="100.8px" preserveAspectRatio="xMinYMin meet" x="1242.6" y="-157.2"/>
<text text-anchor="middle" x="1293" y="-42.55" font-family="Sans-Serif" font-size="13.00" fill="#2d3436">Guest WiFi</text>
</g>
<!-- b19e077e26744ed58ea989f3276382f4&#45;&gt;2c4855028eae4f058942555470c6438c -->
<g id="edge5" class="edge">
<title>b19e077e26744ed58ea989f3276382f4&#45;&gt;2c4855028eae4f058942555470c6438c</title>
<path fill="none" stroke="#7b8894" d="M1329,-258.19C1329,-258.19 1329,-236.37 1329,-216.81"/>
<polygon fill="#7b8894" stroke="#7b8894" points="1332.5,-216.96 1329,-206.96 1325.5,-216.96 1332.5,-216.96"/>
</g>
<!-- 58df3db6c1f64a8ca5a19639104a56bd -->
<g id="node11" class="node">
<title>58df3db6c1f64a8ca5a19639104a56bd</title>
<image xlink:href="./resources/firetv.png" width="100.8px" height="100.8px" preserveAspectRatio="xMinYMin meet" x="1386.6" y="-157.2"/>
<text text-anchor="middle" x="1437" y="-42.55" font-family="Sans-Serif" font-size="13.00" fill="#2d3436">FireTV</text>
</g>
<!-- b19e077e26744ed58ea989f3276382f4&#45;&gt;58df3db6c1f64a8ca5a19639104a56bd -->
<g id="edge6" class="edge">
<title>b19e077e26744ed58ea989f3276382f4&#45;&gt;58df3db6c1f64a8ca5a19639104a56bd</title>
<path fill="none" stroke="#7b8894" d="M1401,-258.19C1401,-258.19 1401,-236.37 1401,-216.81"/>
<polygon fill="#7b8894" stroke="#7b8894" points="1404.5,-216.96 1401,-206.96 1397.5,-216.96 1404.5,-216.96"/>
</g>
<!-- 5a8cacc5401042779463f4002c17fd84 -->
<g id="node12" class="node">
<title>5a8cacc5401042779463f4002c17fd84</title>
<image xlink:href="./resources/cctv.png" width="100.8px" height="100.8px" preserveAspectRatio="xMinYMin meet" x="1586.6" y="-157.2"/>
<text text-anchor="middle" x="1637" y="-42.55" font-family="Sans-Serif" font-size="13.00" fill="#2d3436">CCTV</text>
</g>
<!-- b19e077e26744ed58ea989f3276382f4&#45;&gt;5a8cacc5401042779463f4002c17fd84 -->
<g id="edge7" class="edge">
<title>b19e077e26744ed58ea989f3276382f4&#45;&gt;5a8cacc5401042779463f4002c17fd84</title>
<path fill="none" stroke="#7b8894" d="M1415.21,-303.7C1493.8,-303.7 1637,-303.7 1637,-303.7 1637,-303.7 1637,-251.57 1637,-216.88"/>
<polygon fill="#7b8894" stroke="#7b8894" points="1640.5,-216.96 1637,-206.96 1633.5,-216.96 1640.5,-216.96"/>
</g>
<!-- 66ca1d919d574fdcb626eda151bcf5cb -->
<g id="node13" class="node">
<title>66ca1d919d574fdcb626eda151bcf5cb</title>
<image xlink:href="./resources/wireguard.svg" width="100.8px" height="100.8px" preserveAspectRatio="xMinYMin meet" x="1807.6" y="-157.2"/>
<text text-anchor="middle" x="1858" y="-42.55" font-family="Sans-Serif" font-size="13.00" fill="#2d3436">WireGuard</text>
</g>
<!-- b19e077e26744ed58ea989f3276382f4&#45;&gt;66ca1d919d574fdcb626eda151bcf5cb -->
<g id="edge8" class="edge">
<title>b19e077e26744ed58ea989f3276382f4&#45;&gt;66ca1d919d574fdcb626eda151bcf5cb</title>
<path fill="none" stroke="#7b8894" d="M1414.98,-349.3C1540.32,-349.3 1858,-349.3 1858,-349.3 1858,-349.3 1858,-263.88 1858,-216.79"/>
<polygon fill="#7b8894" stroke="#7b8894" points="1861.5,-216.96 1858,-206.96 1854.5,-216.96 1861.5,-216.96"/>
</g>
<!-- 3f7f60c6ba914dd6aba90484e6df549b -->
<g id="node2" class="node">
<title>3f7f60c6ba914dd6aba90484e6df549b</title>
<image xlink:href="./resources/void.png" width="100.8px" height="83.104px" preserveAspectRatio="xMinYMin meet" x="15.6" y="-148.352"/>
<text text-anchor="middle" x="66" y="-42.55" font-family="Sans-Serif" font-size="13.00" fill="#2d3436">PC: 192.168.10.4</text>
</g>
<!-- 2a3d366a0fe3491fb738e23cc3bc5c33 -->
<g id="node4" class="node">
<title>2a3d366a0fe3491fb738e23cc3bc5c33</title>
<image xlink:href="./resources/ap_unifi.png" width="100.8px" height="100.8px" preserveAspectRatio="xMinYMin meet" x="303.6" y="-157.2"/>
<text text-anchor="middle" x="354" y="-42.55" font-family="Sans-Serif" font-size="13.00" fill="#2d3436">Trusted WiFi</text>
</g>
<!-- 3ac4ffa42f224fb4bcf7a8a28917a8f9 -->
<g id="node5" class="node">
<title>3ac4ffa42f224fb4bcf7a8a28917a8f9</title>
<image xlink:href="./resources/talos.svg" width="100.8px" height="112.165px" preserveAspectRatio="xMinYMin meet" x="447.6" y="-162.882"/>
<text text-anchor="middle" x="498" y="-28.15" font-family="Sans-Serif" font-size="13.00" fill="#2d3436">192.168.42.10</text>
</g>
<!-- 732270c8edf94508a5f8eaa4ecf7686a -->
<g id="node6" class="node">
<title>732270c8edf94508a5f8eaa4ecf7686a</title>
<image xlink:href="./resources/talos.svg" width="100.8px" height="112.165px" preserveAspectRatio="xMinYMin meet" x="591.6" y="-162.882"/>
<text text-anchor="middle" x="642" y="-28.15" font-family="Sans-Serif" font-size="13.00" fill="#2d3436">192.168.42.11</text>
</g>
<!-- 85e94356650d46b4a184d8cb3201aa58 -->
<g id="node7" class="node">
<title>85e94356650d46b4a184d8cb3201aa58</title>
<image xlink:href="./resources/talos.svg" width="100.8px" height="112.165px" preserveAspectRatio="xMinYMin meet" x="735.6" y="-162.882"/>
<text text-anchor="middle" x="786" y="-28.15" font-family="Sans-Serif" font-size="13.00" fill="#2d3436">192.168.42.12</text>
</g>
<!-- 60c88659d7ec4e6696d61dd12cd5bf6e -->
<g id="node9" class="node">
<title>60c88659d7ec4e6696d61dd12cd5bf6e</title>
<image xlink:href="/home/stasky/.pyenv/versions/3.8.10/envs/diagrams/lib/python3.8/site-packages/resources/generic/os/windows.png" width="100.8px" height="100.8px" preserveAspectRatio="xMinYMin meet" x="1023.6" y="-157.2"/>
<text text-anchor="middle" x="1074" y="-44.65" font-family="Sans-Serif" font-size="13.00" fill="#2d3436">Sunshine/</text>
<text text-anchor="middle" x="1074" y="-28.15" font-family="Sans-Serif" font-size="13.00" fill="#2d3436">Moonlight</text>
</g>
<!-- 8cda22daf5294100aa10a522ce6f7eec -->
<g id="node14" class="node">
<title>8cda22daf5294100aa10a522ce6f7eec</title>
<image xlink:href="/home/stasky/.pyenv/versions/3.8.10/envs/diagrams/lib/python3.8/site-packages/resources/generic/network/router.png" width="100.8px" height="100.8px" preserveAspectRatio="xMinYMin meet" x="1314.6" y="-758.5"/>
<text text-anchor="middle" x="1365" y="-643.85" font-family="Sans-Serif" font-size="13.00" fill="#2d3436">ISP</text>
</g>
<!-- e469aae5dd86492d9a524f6907890bf3 -->
<g id="node15" class="node">
<title>e469aae5dd86492d9a524f6907890bf3</title>
<image xlink:href="/home/stasky/.pyenv/versions/3.8.10/envs/diagrams/lib/python3.8/site-packages/resources/generic/network/firewall.png" width="100.8px" height="100.8px" preserveAspectRatio="xMinYMin meet" x="1314.6" y="-567.7"/>
<text text-anchor="middle" x="1365" y="-453.05" font-family="Sans-Serif" font-size="13.00" fill="#2d3436">VyOS</text>
</g>
<!-- 8cda22daf5294100aa10a522ce6f7eec&#45;&gt;e469aae5dd86492d9a524f6907890bf3 -->
<g id="edge1" class="edge">
<title>8cda22daf5294100aa10a522ce6f7eec&#45;&gt;e469aae5dd86492d9a524f6907890bf3</title>
<path fill="none" stroke="#7b8894" d="M1365,-639.76C1365,-639.76 1365,-597 1365,-597"/>
<polygon fill="#7b8894" stroke="#7b8894" points="1368.5,-597 1365,-587 1361.5,-597 1368.5,-597"/>
</g>
<!-- e469aae5dd86492d9a524f6907890bf3&#45;&gt;b19e077e26744ed58ea989f3276382f4 -->
<g id="edge2" class="edge">
<title>e469aae5dd86492d9a524f6907890bf3&#45;&gt;b19e077e26744ed58ea989f3276382f4</title>
<path fill="none" stroke="#7b8894" d="M1365,-448.96C1365,-448.96 1365,-406.2 1365,-406.2"/>
<polygon fill="#7b8894" stroke="#7b8894" points="1368.5,-406.2 1365,-396.2 1361.5,-406.2 1368.5,-406.2"/>
</g>
</g>
</svg>
