<?xml version="1.0" encoding="UTF-8" standalone="no"?>
<!DOCTYPE svg PUBLIC "-//W3C//DTD SVG 1.1//EN"
 "http://www.w3.org/Graphics/SVG/1.1/DTD/svg11.dtd">
<!-- Generated by graphviz version 12.1.2 (20240928.0832)
 -->
<!-- Title: Home Networking Pages: 1 -->
<svg width="1572pt" height="1232pt"
 viewBox="0.00 0.00 1572.00 1231.50" xmlns="http://www.w3.org/2000/svg" xmlns:xlink="http://www.w3.org/1999/xlink">
<g id="graph0" class="graph" transform="scale(1 1) rotate(0) translate(144 1087.5)">
<title>Home Networking</title>
<polygon fill="white" stroke="none" points="-144,144 -144,-1087.5 1428,-1087.5 1428,144 -144,144"/>
<text text-anchor="middle" x="642" y="-9.25" font-family="Sans-Serif" font-size="15.00" fill="#2d3436">Home Networking</text>
<g id="clust1" class="cluster">
<title>cluster_10</title>
<path fill="#e5f5fd" stroke="#aeb6be" d="M20,-226.3C20,-226.3 256,-226.3 256,-226.3 262,-226.3 268,-232.3 268,-238.3 268,-238.3 268,-390.85 268,-390.85 268,-396.85 262,-402.85 256,-402.85 256,-402.85 20,-402.85 20,-402.85 14,-402.85 8,-396.85 8,-390.85 8,-390.85 8,-238.3 8,-238.3 8,-232.3 14,-226.3 20,-226.3"/>
<text text-anchor="middle" x="117.62" y="-387.45" font-family="Sans-Serif" font-size="12.00" fill="#2d3436">VLAN10 (TRUSTED): 192.168.1.10/24</text>
</g>
<g id="clust2" class="cluster">
<title>cluster_42</title>
<path fill="#e5f5fd" stroke="#aeb6be" d="M308,-35.5C308,-35.5 832,-35.5 832,-35.5 838,-35.5 844,-41.5 844,-47.5 844,-47.5 844,-390.85 844,-390.85 844,-396.85 838,-402.85 832,-402.85 832,-402.85 308,-402.85 308,-402.85 302,-402.85 296,-396.85 296,-390.85 296,-390.85 296,-47.5 296,-47.5 296,-41.5 302,-35.5 308,-35.5"/>
<text text-anchor="middle" x="405.25" y="-387.45" font-family="Sans-Serif" font-size="12.00" fill="#2d3436">VLAN42 (SERVERS): 192.168.1.42/24</text>
</g>
<g id="clust4" class="cluster">
<title>cluster_50</title>
<path fill="#e5f5fd" stroke="#aeb6be" d="M884,-226.3C884,-226.3 1264,-226.3 1264,-226.3 1270,-226.3 1276,-232.3 1276,-238.3 1276,-238.3 1276,-390.85 1276,-390.85 1276,-396.85 1270,-402.85 1264,-402.85 1264,-402.85 884,-402.85 884,-402.85 878,-402.85 872,-396.85 872,-390.85 872,-390.85 872,-238.3 872,-238.3 872,-232.3 878,-226.3 884,-226.3"/>
<text text-anchor="middle" x="974.5" y="-387.45" font-family="Sans-Serif" font-size="12.00" fill="#2d3436">VLAN50 (GUEST): 192.168.1.50/24</text>
</g>
<!-- a186cec03d0a4d6b930b328411498217 -->
<g id="node1" class="node">
<title>a186cec03d0a4d6b930b328411498217</title>
<image xlink:href="C:\Users\Stasky\Documents\Repos\diagrams\.venv\lib\site-packages\resources/generic/network\switch.png" width="100.8px" height="100.8px" preserveAspectRatio="xMinYMin meet" x="735.6" y="-543.9"/>
<text text-anchor="middle" x="786" y="-429.25" font-family="Sans-Serif" font-size="13.00" fill="#2d3436">Switch</text>
</g>
<!-- 3c43277b14e0489cb38cb72339cf0cbd -->
<g id="node3" class="node">
<title>3c43277b14e0489cb38cb72339cf0cbd</title>
<image xlink:href="./resources/ap_unifi.png" width="100.8px" height="100.8px" preserveAspectRatio="xMinYMin meet" x="159.6" y="-353.1"/>
<text text-anchor="middle" x="210" y="-238.45" font-family="Sans-Serif" font-size="13.00" fill="#2d3436">Trusted WiFi</text>
</g>
<!-- a186cec03d0a4d6b930b328411498217&#45;&gt;3c43277b14e0489cb38cb72339cf0cbd -->
<g id="edge3" class="edge">
<title>a186cec03d0a4d6b930b328411498217&#45;&gt;3c43277b14e0489cb38cb72339cf0cbd</title>
<path fill="none" stroke="#7b8894" d="M735.64,-493.5C595.29,-493.5 210,-493.5 210,-493.5 210,-493.5 210,-446.99 210,-414.2"/>
<polygon fill="#7b8894" stroke="#7b8894" points="213.5,-414.36 210,-404.36 206.5,-414.36 213.5,-414.36"/>
</g>
<!-- 1bc0fb1a15c74dcca45c747e46623956 -->
<g id="node8" class="node">
<title>1bc0fb1a15c74dcca45c747e46623956</title>
<image xlink:href="C:\Users\Stasky\Documents\Repos\diagrams\.venv\lib\site-packages\resources/generic/os\windows.png" width="100.8px" height="100.8px" preserveAspectRatio="xMinYMin meet" x="735.6" y="-353.1"/>
<text text-anchor="middle" x="786" y="-238.45" font-family="Sans-Serif" font-size="13.00" fill="#2d3436">Sunshine/Moonlight</text>
</g>
<!-- a186cec03d0a4d6b930b328411498217&#45;&gt;1bc0fb1a15c74dcca45c747e46623956 -->
<g id="edge4" class="edge">
<title>a186cec03d0a4d6b930b328411498217&#45;&gt;1bc0fb1a15c74dcca45c747e46623956</title>
<path fill="none" stroke="#7b8894" d="M786,-425.16C786,-425.16 786,-420.51 786,-414.28"/>
<polygon fill="#7b8894" stroke="#7b8894" points="789.5,-414.36 786,-404.36 782.5,-414.36 789.5,-414.36"/>
</g>
<!-- b8b33f60d0d54966908df0324b4aeddf -->
<g id="node10" class="node">
<title>b8b33f60d0d54966908df0324b4aeddf</title>
<image xlink:href="C:\Users\Stasky\Documents\Repos\diagrams\.venv\lib\site-packages\resources/generic/device\tablet.png" width="100.8px" height="100.8px" preserveAspectRatio="xMinYMin meet" x="1023.6" y="-353.1"/>
</g>
<!-- a186cec03d0a4d6b930b328411498217&#45;&gt;b8b33f60d0d54966908df0324b4aeddf -->
<g id="edge5" class="edge">
<title>a186cec03d0a4d6b930b328411498217&#45;&gt;b8b33f60d0d54966908df0324b4aeddf</title>
<path fill="none" stroke="#7b8894" d="M836.17,-493.5C918.68,-493.5 1074,-493.5 1074,-493.5 1074,-493.5 1074,-446.99 1074,-414.2"/>
<polygon fill="#7b8894" stroke="#7b8894" points="1077.5,-414.36 1074,-404.36 1070.5,-414.36 1077.5,-414.36"/>
</g>
<!-- 57710f72b44d4832a194e2d8e28813a2 -->
<g id="node2" class="node">
<title>57710f72b44d4832a194e2d8e28813a2</title>
<image xlink:href="./resources/void.png" width="100.8px" height="83.104px" preserveAspectRatio="xMinYMin meet" x="15.6" y="-344.252"/>
<text text-anchor="middle" x="66" y="-238.45" font-family="Sans-Serif" font-size="13.00" fill="#2d3436">PC: 192.168.1.14</text>
</g>
<!-- 970a8ebaf2fb48b095176c49f52f608c -->
<g id="node4" class="node">
<title>970a8ebaf2fb48b095176c49f52f608c</title>
<image xlink:href="./resources/talos.svg" width="100.8px" height="112.165px" preserveAspectRatio="xMinYMin meet" x="303.6" y="-358.782"/>
<text text-anchor="middle" x="354" y="-238.45" font-family="Sans-Serif" font-size="13.00" fill="#2d3436">M1: 192.168.1.45</text>
</g>
<!-- a2e6ccc092934d87bdca9a1222b439ca -->
<g id="node7" class="node">
<title>a2e6ccc092934d87bdca9a1222b439ca</title>
<image xlink:href="C:\Users\Stasky\Documents\Repos\diagrams\.venv\lib\site-packages\resources/generic/storage\storage.png" width="100.8px" height="100.8px" preserveAspectRatio="xMinYMin meet" x="447.6" y="-162.3"/>
<text text-anchor="middle" x="498" y="-47.65" font-family="Sans-Serif" font-size="13.00" fill="#2d3436">NAS/DAS</text>
</g>
<!-- 970a8ebaf2fb48b095176c49f52f608c&#45;&gt;a2e6ccc092934d87bdca9a1222b439ca -->
<g id="edge6" class="edge">
<title>970a8ebaf2fb48b095176c49f52f608c&#45;&gt;a2e6ccc092934d87bdca9a1222b439ca</title>
<path fill="none" stroke="#7b8894" d="M354,-234.36C354,-179.61 354,-111.9 354,-111.9 354,-111.9 354,-100.39 354,-100.39"/>
<polygon fill="#7b8894" stroke="#7b8894" points="435.78,-113.97 446.13,-111.72 436.64,-107.02 435.78,-113.97"/>
</g>
<!-- 254da3f2cf7841b18931b4a958abde7e -->
<g id="node5" class="node">
<title>254da3f2cf7841b18931b4a958abde7e</title>
<image xlink:href="./resources/talos.svg" width="100.8px" height="112.165px" preserveAspectRatio="xMinYMin meet" x="447.6" y="-358.782"/>
<text text-anchor="middle" x="498" y="-238.45" font-family="Sans-Serif" font-size="13.00" fill="#2d3436">M2: 192.168.1.46</text>
</g>
<!-- 254da3f2cf7841b18931b4a958abde7e&#45;&gt;a2e6ccc092934d87bdca9a1222b439ca -->
<g id="edge7" class="edge">
<title>254da3f2cf7841b18931b4a958abde7e&#45;&gt;a2e6ccc092934d87bdca9a1222b439ca</title>
<path fill="none" stroke="#7b8894" d="M498,-234.36C498,-234.36 498,-191.6 498,-191.6"/>
<polygon fill="#7b8894" stroke="#7b8894" points="501.5,-191.6 498,-181.6 494.5,-191.6 501.5,-191.6"/>
</g>
<!-- 54c69c779b9d499bba0e0b7c9198d036 -->
<g id="node6" class="node">
<title>54c69c779b9d499bba0e0b7c9198d036</title>
<image xlink:href="./resources/talos.svg" width="100.8px" height="112.165px" preserveAspectRatio="xMinYMin meet" x="591.6" y="-358.782"/>
<text text-anchor="middle" x="642" y="-238.45" font-family="Sans-Serif" font-size="13.00" fill="#2d3436">M3: 192.168.1.47</text>
</g>
<!-- 54c69c779b9d499bba0e0b7c9198d036&#45;&gt;a2e6ccc092934d87bdca9a1222b439ca -->
<g id="edge8" class="edge">
<title>54c69c779b9d499bba0e0b7c9198d036&#45;&gt;a2e6ccc092934d87bdca9a1222b439ca</title>
<path fill="none" stroke="#7b8894" d="M642,-234.36C642,-179.61 642,-111.9 642,-111.9 642,-111.9 642,-100.39 642,-100.39"/>
<polygon fill="#7b8894" stroke="#7b8894" points="559.36,-107.02 549.87,-111.72 560.22,-113.97 559.36,-107.02"/>
</g>
<!-- 13574bd34f8b4b7fa2dec143e7e5a2ab -->
<g id="node9" class="node">
<title>13574bd34f8b4b7fa2dec143e7e5a2ab</title>
<image xlink:href="C:\Users\Stasky\Documents\Repos\diagrams\.venv\lib\site-packages\resources/generic/device\mobile.png" width="100.8px" height="100.8px" preserveAspectRatio="xMinYMin meet" x="879.6" y="-353.1"/>
</g>
<!-- 2b84361e71f944cdbf30a4c78a9753f4 -->
<g id="node11" class="node">
<title>2b84361e71f944cdbf30a4c78a9753f4</title>
<image xlink:href="./resources/ap_unifi.png" width="100.8px" height="100.8px" preserveAspectRatio="xMinYMin meet" x="1167.6" y="-353.1"/>
<text text-anchor="middle" x="1218" y="-238.45" font-family="Sans-Serif" font-size="13.00" fill="#2d3436">Guest WiFi</text>
</g>
<!-- 5cbfe88695ca400987bd0a51271fc4e4 -->
<g id="node12" class="node">
<title>5cbfe88695ca400987bd0a51271fc4e4</title>
<image xlink:href="C:\Users\Stasky\Documents\Repos\diagrams\.venv\lib\site-packages\resources/generic/network\router.png" width="100.8px" height="100.8px" preserveAspectRatio="xMinYMin meet" x="735.6" y="-925.5"/>
<text text-anchor="middle" x="786" y="-810.85" font-family="Sans-Serif" font-size="13.00" fill="#2d3436">ISP</text>
</g>
<!-- 875528c75a7346eba1f4ef8e625db4d1 -->
<g id="node13" class="node">
<title>875528c75a7346eba1f4ef8e625db4d1</title>
<image xlink:href="C:\Users\Stasky\Documents\Repos\diagrams\.venv\lib\site-packages\resources/generic/network\firewall.png" width="100.8px" height="100.8px" preserveAspectRatio="xMinYMin meet" x="735.6" y="-734.7"/>
<text text-anchor="middle" x="786" y="-620.05" font-family="Sans-Serif" font-size="13.00" fill="#2d3436">VyOS</text>
</g>
<!-- 5cbfe88695ca400987bd0a51271fc4e4&#45;&gt;875528c75a7346eba1f4ef8e625db4d1 -->
<g id="edge1" class="edge">
<title>5cbfe88695ca400987bd0a51271fc4e4&#45;&gt;875528c75a7346eba1f4ef8e625db4d1</title>
<path fill="none" stroke="#7b8894" d="M786,-806.76C786,-806.76 786,-764 786,-764"/>
<polygon fill="#7b8894" stroke="#7b8894" points="789.5,-764 786,-754 782.5,-764 789.5,-764"/>
</g>
<!-- 875528c75a7346eba1f4ef8e625db4d1&#45;&gt;a186cec03d0a4d6b930b328411498217 -->
<g id="edge2" class="edge">
<title>875528c75a7346eba1f4ef8e625db4d1&#45;&gt;a186cec03d0a4d6b930b328411498217</title>
<path fill="none" stroke="#7b8894" d="M786,-615.96C786,-615.96 786,-573.2 786,-573.2"/>
<polygon fill="#7b8894" stroke="#7b8894" points="789.5,-573.2 786,-563.2 782.5,-573.2 789.5,-573.2"/>
</g>
</g>
</svg>
