<svg xmlns="http://www.w3.org/2000/svg" width="136" height="33" fill="none"><g fill="#E20626"><path d="M16.52 29.866c-1.517.487-4.854.73-6.553-1.399-2.123-2.615-.606-4.623-1.88-4.319-4.975 1.156-7.22-2.007-7.645-2.92 0 0-.182-.608-.303-.06-.182.73-.243 2.494.182 4.075.485 2.008 1.941 5.353 6.067 7.056 3.458 1.4 7.887.73 10.8-2.25.727-.67.545-.548-.668-.183ZM8.694 2.19C7.54.79 6.328 0 6.328 0c.91 1.886 2.123 5.657-1.942 9.915C1.9 12.531.14 15.207 1.171 18.309c.485 1.521 1.638 3.467 3.943 3.832.85.122 1.82 0 2.366-.182 3.398-1.156 2.912-4.684 2.124-6.934-.122-.305-.243-1.034-.304-1.278-.485-2.19 1.092-3.65 1.578-5.231.06-.122.06-.243.121-.365.06-.304.121-.608.121-.852 0-2.615-1.334-3.771-2.426-5.11Z"/><path d="M19.98 22.384c-.183-2.19-1.093-3.771-3.762-6.813-1.335-1.52-2.184-3.345-2.124-4.684.182-1.642.91-2.554.91-2.554s-.97.486-1.698 1.216c-.607.67-1.214 1.217-1.76 2.555-.06.183-.06.365-.121.608-.303 2.251 1.577 4.32.97 7.178-.181.73-.485.973-1.091 2.25-.729 1.521-.546 3.59.485 4.867.91 1.156 2.609 1.703 4.186 1.338 2.912-.73 4.247-3.224 4.004-5.96Z"/></g><g fill="#000"><path d="M32.096 25.413h-2.609c-.97 0-2.305 0-4.125-.061V24.5l1.76-.73V10.631l-1.76-.73V9.05c.85 0 1.941 0 3.155-.061h3.094c4.732 0 7.037 1.217 7.037 3.65 0 1.338-.546 2.19-1.88 3.041-.668.365-1.7.73-2.852.852 1.638.121 2.79.365 3.58.79 1.213.67 1.88 1.704 1.88 3.103.061 3.284-2.487 4.988-7.28 4.988Zm-1.153-15.147v5.78h.122c2.244 0 3.58-1.157 3.58-3.286.06-1.703-.85-2.494-3.702-2.494Zm.364 7.117h-.303v6.57c.243 0 .425.06.667 0 2.67 0 3.823-1.034 3.823-3.468 0-2.128-1.396-3.102-4.187-3.102ZM52.66 24.315c-.91.852-2.062 1.338-3.336 1.338-1.153 0-2.002-.851-2.002-1.946v-.061c-.85 1.277-2.063 1.946-3.458 1.946-1.82 0-3.094-1.216-3.094-3.102 0-1.581.849-2.676 2.487-3.345.97-.365 2.245-.609 4.065-.73v-.365c0-.791-.122-1.339-.425-1.704-.364-.486-1.092-.79-1.82-.79-1.092 0-2.063.486-3.094 1.825l-.667-.365c.97-2.434 2.79-3.893 5.096-3.893 1.699 0 2.973.608 3.822 1.703.485.669.728 1.581.728 2.737v5.353c0 .608.303.851.789.851.242 0 .424-.06.667-.121l.243.669Zm-8.25-2.372c0 .973.546 1.581 1.516 1.581.486 0 .91-.122 1.396-.608V19.57c-.97 0-1.699.244-2.245.67-.425.364-.667.912-.667 1.703ZM63.887 21.76c-1.092 2.616-2.73 3.832-5.157 3.832-1.699 0-3.034-.547-4.065-1.642-.97-1.095-1.517-2.494-1.517-4.319 0-1.886.607-3.467 1.82-4.684 1.214-1.216 2.73-1.824 4.55-1.824 1.214 0 2.791.365 3.823.851l.06 4.258-1.213.122-.728-1.46c-.243-.547-.668-1.338-1.214-2.433-.242-.061-.485-.122-.728-.122-1.698 0-2.608 1.52-2.608 4.136 0 2.677 1.213 4.38 3.155 4.38 1.274 0 2.123-.426 3.215-1.581l.607.486ZM71.105 24.498v.852h-6.552v-.852l1.517-.73V9.838l-1.639-.425V8.379l5.218-1.034.121.06v11.193l4.065-3.224-1.456-.79v-.974h5.4v.973l-2.002.791-2.67 1.947 4.308 6.569.97.608v.852h-4.61l-3.52-5.961-.485.304v4.075l1.335.73ZM90.402 14.705c.849 1.034 1.213 2.372 1.213 3.954 0 2.129-.546 3.771-1.699 5.049-1.152 1.216-2.73 1.885-4.793 1.885a8.584 8.584 0 0 1-3.7-.851l-1.032.851-.607-.182V9.839l-1.638-.426V8.379l5.218-1.034.121.06v7.726c.728-1.217 2.124-1.947 3.701-1.947 1.335 0 2.366.487 3.216 1.52Zm-5.036.547c-.789 0-1.577.548-1.82 1.156v7.543c.364.182.91.243 1.395.243 1.942 0 2.973-1.642 2.973-4.623-.06-2.737-1.031-4.319-2.548-4.319ZM99.014 24.498v.852H92.34v-.852l1.517-.73V9.838l-1.638-.425V8.379l5.217-1.034.122.06v16.363l1.456.73ZM112.059 24.315a4.94 4.94 0 0 1-3.337 1.338c-1.153 0-2.002-.851-2.002-1.946v-.061c-.85 1.277-2.063 1.946-3.458 1.946-1.82 0-3.095-1.216-3.095-3.102 0-1.581.85-2.676 2.488-3.345.971-.365 2.245-.609 4.065-.73v-.365c0-.791-.122-1.339-.425-1.704-.364-.486-1.092-.79-1.82-.79-1.092 0-2.063.486-3.094 1.825l-.668-.365c.971-2.434 2.791-3.893 5.097-3.893 1.698 0 2.972.608 3.822 1.703.485.669.728 1.581.728 2.737v5.353c0 .608.303.851.789.851.242 0 .424-.06.667-.121l.243.669Zm-8.251-2.372c0 .973.546 1.581 1.516 1.581.486 0 .91-.122 1.396-.608V19.57c-.971 0-1.699.244-2.245.67-.485.364-.667.912-.667 1.703ZM113.696 13.551h9.464l.364.73-6.309 9.794 3.579-.061 1.881-3.346.728.061.121 4.44-.121.183h-10.192l-.304-.852 6.37-9.793h-3.154l-1.942 3.041-.849-.121.303-4.015.061-.06ZM135.779 21.7c-.789 2.433-2.852 3.892-5.4 3.892-1.638 0-2.972-.547-3.943-1.642-.971-1.095-1.456-2.555-1.456-4.319 0-1.825.606-3.345 1.759-4.623 1.153-1.216 2.548-1.885 4.126-1.885 2.123 0 3.64.73 4.428 2.068.425.73.668 1.642.668 2.737 0 .304 0 .608-.061.852h-7.28c.061 2.615 1.335 4.075 3.337 4.075.546 0 1.031-.122 1.516-.304.425-.182 1.032-.608 1.82-1.277l.486.425Zm-7.159-4.015 3.701-.061c0-1.947-.668-3.285-1.638-3.285-1.214 0-1.942 1.095-2.063 3.346Z" style="fill:#fff"/></g></svg>